<?xml version="1.0" encoding="UTF-8"?>
<svg version="1.1" xmlns="http://www.w3.org/2000/svg" width="128" height="128">
<path d="M0 0 C42.24 0 84.48 0 128 0 C128 42.24 128 84.48 128 128 C85.76 128 43.52 128 0 128 C0 85.76 0 43.52 0 0 Z " fill="#54B4E2" transform="translate(0,0)"/>
<path d="M0 0 C21.12 0 42.24 0 64 0 C64 0.66 64 1.32 64 2 C63.01 2 62.02 2 61 2 C61.00444122 2.69189423 61.00888245 3.38378845 61.01345825 4.09664917 C61.05373994 10.65691562 61.08408769 17.21714692 61.10362434 23.77750969 C61.11400638 27.14925339 61.12806184 30.52089383 61.15087891 33.89257812 C61.1752828 37.77997508 61.18651883 41.66722761 61.1953125 45.5546875 C61.20563507 46.74988007 61.21595764 47.94507263 61.22659302 49.17648315 C61.22813276 60.80058757 59.74908455 73.91532125 52.6875 83.625 C49.43369875 86.50045227 47.27982803 86.83216361 43 87 C43 87.66 43 88.32 43 89 C43.556875 89.26683594 44.11375 89.53367187 44.6875 89.80859375 C48.09793485 91.565659 51.30844592 93.6313329 54.5625 95.66015625 C57.15246588 97.21858444 57.15246588 97.21858444 61 98 C61.495 102.95 61.495 102.95 62 108 C62.7321875 107.57332031 63.464375 107.14664063 64.21875 106.70703125 C72.31633438 102.03164027 80.48584149 97.49018729 88.6875 93 C89.75097656 92.4119458 90.81445312 91.8238916 91.91015625 91.21801758 C92.91304688 90.67169678 93.9159375 90.12537598 94.94921875 89.5625 C96.30019653 88.82193359 96.30019653 88.82193359 97.6784668 88.06640625 C100 87 100 87 103 87 C87.98672155 101.07758114 87.98672155 101.07758114 80.484375 107.76171875 C78.58081548 109.47671812 76.69924009 111.20719214 74.828125 112.95703125 C74.28567139 113.46210205 73.74321777 113.96717285 73.18432617 114.48754883 C72.12614588 115.47436607 71.07144309 116.46492941 70.02075195 117.4597168 C67.67351392 119.64303826 66.08356059 120.97214647 63 122 C63 122.66 63 123.32 63 124 C62.34 124 61.68 124 61 124 C61 124.66 61 125.32 61 126 C61.99 126 62.98 126 64 126 C64 126.66 64 127.32 64 128 C42.88 128 21.76 128 0 128 C0 85.76 0 43.52 0 0 Z " fill="#72D0FE" transform="translate(0,0)"/>
<path d="M0 0 C21.12 0 42.24 0 64 0 C64 0.66 64 1.32 64 2 C63.01 2 62.02 2 61 2 C61.00222061 2.69633545 61.00444122 3.3926709 61.00672913 4.11010742 C61.02683881 10.70044457 61.04202832 17.29077304 61.05181217 23.88113403 C61.05701137 27.26858844 61.06405465 30.65601731 61.07543945 34.04345703 C61.08761141 37.9456448 61.0932527 41.84779666 61.09765625 45.75 C61.10281754 46.95551514 61.10797882 48.16103027 61.11329651 49.40307617 C61.11369152 55.36809012 60.91818403 61.10328871 60 67 C58 64 58 64 57.1875 61.0625 C54.9822328 55.37523197 49.91848467 53.2403019 44.5625 50.875 C37.50282446 47.82663324 30.67159084 46.67621925 23 46 C22.34 44.02 21.68 42.04 21 40 C20.67 41.98 20.34 43.96 20 46 C17.03824877 45.38722388 15.61941217 44.74627478 13 43 C13.33 44.32 13.66 45.64 14 47 C9.66265425 45.46917209 7.04042344 43.69361563 3 41 C3 68.72 3 96.44 3 125 C21.952773 124.96041925 21.952773 124.96041925 40.90551758 124.90991211 C43.27685501 124.90699223 45.64819295 124.90444384 48.01953125 124.90234375 C49.25650757 124.89722778 50.49348389 124.89211182 51.76794434 124.88684082 C53.5337384 124.88665955 53.5337384 124.88665955 55.33520508 124.88647461 C56.35890701 124.884254 57.38260895 124.88203339 58.43733215 124.87974548 C61 125 61 125 64 126 C64 126.66 64 127.32 64 128 C42.88 128 21.76 128 0 128 C0 85.76 0 43.52 0 0 Z " fill="#75D0FE" transform="translate(0,0)"/>
<path d="M0 0 C21.12 0 42.24 0 64 0 C64 42.24 64 84.48 64 128 C42.88 128 21.76 128 0 128 C0 127.34 0 126.68 0 126 C20.46 126 40.92 126 62 126 C62 85.08 62 44.16 62 2 C41.54 2 21.08 2 0 2 C0 1.34 0 0.68 0 0 Z " fill="#6461AB" transform="translate(64,0)"/>
<path d="M0 0 C21.12 0 42.24 0 64 0 C64 0.66 64 1.32 64 2 C43.54 2 23.08 2 2 2 C2 42.92 2 83.84 2 126 C22.46 126 42.92 126 64 126 C64 126.66 64 127.32 64 128 C42.88 128 21.76 128 0 128 C0 85.76 0 43.52 0 0 Z " fill="#E8E6FE" transform="translate(0,0)"/>
<path d="M0 0 C21.45 0 42.9 0 65 0 C65 40.92 65 81.84 65 124 C43.55 124 22.1 124 0 124 C0 123.34 0 122.68 0 122 C1.485 121.505 1.485 121.505 3 121 C3 121.66 3 122.32 3 123 C23.13 123 43.26 123 64 123 C64 82.74 64 42.48 64 1 C43.87 1 23.74 1 3 1 C3.11805845 18.05093002 3.11805845 18.05093002 3.27026367 35.1015625 C3.47786367 69.49821753 3.47786367 69.49821753 -6 81 C-7.485 81.99 -7.485 81.99 -9 83 C-7.9274614 80.31117066 -6.84659545 77.62676339 -5.74609375 74.94921875 C-5.09833984 73.33466797 -5.09833984 73.33466797 -4.4375 71.6875 C-4.00308594 70.61886719 -3.56867187 69.55023438 -3.12109375 68.44921875 C-0.52153137 60.45126202 -0.79894262 52.07993691 -0.68359375 43.75 C-0.66494263 42.63753906 -0.6462915 41.52507813 -0.6270752 40.37890625 C-0.55915781 36.25267924 -0.49876741 32.1263311 -0.4375 28 C-0.293125 18.76 -0.14875 9.52 0 0 Z " fill="#579ED3" transform="translate(61,2)"/>
<path d="M0 0 C2.47384002 2.55966712 4.77196321 5.22484174 7 8 C5 9 5 9 2.8359375 8.44140625 C2.02382812 8.15136719 1.21171875 7.86132812 0.375 7.5625 C-0.44226563 7.27503906 -1.25953125 6.98757812 -2.1015625 6.69140625 C-2.72804687 6.46324219 -3.35453125 6.23507813 -4 6 C-3.01 7.65 -2.02 9.3 -1 11 C-4.64991166 9.68197635 -6.7895201 8.40785992 -10 6 C-9.34 9.3 -8.68 12.6 -8 16 C-10.85449645 13.14550355 -12.88798596 10.4229193 -15 7 C-15 6.34 -15 5.68 -15 5 C-24.92387545 7.11676139 -33.25771964 9.65070258 -42 15 C-43.32603868 15.68106068 -44.65695521 16.35312063 -46 17 C-46.8125 14.875 -46.8125 14.875 -47 12 C-42.73517412 4.57604383 -34.58872061 1.45682331 -26.71484375 -1.04296875 C-18.08619921 -3.23355431 -7.70243166 -5.60176848 0 0 Z " fill="#DFE3FC" transform="translate(116,51)"/>
<path d="M0 0 C2.5654594 2.5654594 2.54046087 4.47686668 3 8 C4.155 7.95875 5.31 7.9175 6.5 7.875 C16.99104246 7.93002295 29.14587071 12.24720998 36.86328125 19.44140625 C38 21 38 21 38.4375 24.375 C38.293125 25.24125 38.14875 26.1075 38 27 C37.01 27.33 36.02 27.66 35 28 C34.4225 27.278125 33.845 26.55625 33.25 25.8125 C27.43527578 19.99777578 17.11946361 16.70154006 9 16 C7.53853309 16.03984559 6.07750709 16.09768435 4.6171875 16.16796875 C-7.99249092 16.74247065 -7.99249092 16.74247065 -11.16796875 14.40234375 C-12.44772089 12.29567484 -13.24695469 10.34136502 -14 8 C-14.598125 7.01 -15.19625 6.02 -15.8125 5 C-16.204375 4.34 -16.59625 3.68 -17 3 C-13.22272911 4.81309003 -9.62730178 6.9073259 -6 9 C-6.66 7.02 -7.32 5.04 -8 3 C-7.236875 3.639375 -6.47375 4.27875 -5.6875 4.9375 C-3.11753287 7.14232781 -3.11753287 7.14232781 0 8 C0 5.36 0 2.72 0 0 Z " fill="#6466AE" transform="translate(20,38)"/>
<path d="M0 0 C0.99 0 1.98 0 3 0 C3.07685976 7.53980889 3.12893515 15.07951462 3.16479492 22.61962891 C3.17976425 25.17793554 3.20014693 27.73621704 3.22631836 30.29443359 C3.61531524 69.33141432 3.61531524 69.33141432 -6 81 C-7.485 81.99 -7.485 81.99 -9 83 C-7.9274614 80.31117066 -6.84659545 77.62676339 -5.74609375 74.94921875 C-5.09833984 73.33466797 -5.09833984 73.33466797 -4.4375 71.6875 C-4.00308594 70.61886719 -3.56867187 69.55023438 -3.12109375 68.44921875 C-0.52154477 60.45130325 -0.79907315 52.07982581 -0.68359375 43.75 C-0.66281265 42.49614502 -0.64203156 41.24229004 -0.62062073 39.95043945 C-0.56657152 36.64288054 -0.5162459 33.33529336 -0.46777344 30.02764893 C-0.41722582 26.64207961 -0.36171472 23.25659192 -0.30664062 19.87109375 C-0.19988711 13.24746116 -0.09804792 6.62376687 0 0 Z " fill="#3F84A6" transform="translate(61,2)"/>
<path d="M0 0 C4.17670196 -0.33765956 6.1022918 0.38994291 9.4375 2.875 C12.8692039 5.30818136 15.87794003 6.94306155 20 8 C20 11.96 20 15.92 20 20 C19.01 20.33 18.02 20.66 17 21 C17 17.37 17 13.74 17 10 C15.67935547 9.85884766 15.67935547 9.85884766 14.33203125 9.71484375 C10.68709294 8.93286988 8.67970685 7.74649316 5.6875 5.5625 C4.82511719 4.94503906 3.96273437 4.32757813 3.07421875 3.69140625 C1 2 1 2 0 0 Z " fill="#3E83A6" transform="translate(44,88)"/>
<path d="M0 0 C0.33 0.66 0.66 1.32 1 2 C1.66 2 2.32 2 3 2 C1.58036591 7.67853635 -1.39363961 11.53174216 -5 16 C-5 12.80509658 -4.40889494 11.40382456 -3.0625 8.5625 C-1.72062057 5.72002421 -0.66568463 3.07616371 0 0 Z " fill="#428BAE" transform="translate(58,69)"/>
</svg>
